#Comment line ignore any data following # character 
#Hierarchical Translation and Rotation (.htr) file 
[Header]	
#Header keywords are followed by a single value 
FileType HTR		#Single word string
DataType HTRS		#Translation followed by rotation and scale data
FileVersion 1		#integer
NumSegments 84		#integer
NumFrames 2		#integer
DataFrameRate 30		#integer, data frame rate in this file
EulerRotationOrder ZYX
CalibrationUnits mm
RotationUnits Degrees
GlobalAxisofGravity Y
BoneLengthAxis Y
ScaleFactor 1.00
[SegmentNames&Hierarchy]
#CHILD	PARENT
MASTER GLOBAL
root MASTER
chest root
L_mid_tent01 root
R_mid_tent01 root
spine01 root
Bip01_Neck chest
L_humerus chest
R_humerus chest
weapon_bone chest
Bip01_Head Bip01_Neck
eye_left_bone Bip01_Head
eye_right_bone Bip01_Head
L_forearm L_humerus
L_front_hand L_forearm
L_weapon_bone L_forearm
L_front_hand01_01 L_front_hand
L_front_hand02_01 L_front_hand
L_front_hand03_01 L_front_hand
L_front_hand01_02 L_front_hand01_01
L_front_hand02_02 L_front_hand02_01
L_front_hand03_02 L_front_hand03_01
R_forearm R_humerus
R_front_hand R_forearm
R_weapon_bone R_forearm
R_front_hand01_01 R_front_hand
R_front_hand02_01 R_front_hand
R_front_hand03_01 R_front_hand
R_front_hand01_02 R_front_hand01_01
R_front_hand02_02 R_front_hand02_01
R_front_hand03_02 R_front_hand03_01
null_rope01_connect L_mid_tent01
Rope1_Seg01 null_rope01_connect
Rope1_Seg02 Rope1_Seg01
Rope1_Seg03 Rope1_Seg02
Rope1_Seg04 Rope1_Seg03
Rope1_Seg05 Rope1_Seg04
Rope1_Seg06 Rope1_Seg05
Rope1_Seg07 Rope1_Seg06
Rope1_Seg09 Rope1_Seg07
L_mid_hand01 Rope1_Seg09
L_mid_hand02 Rope1_Seg09
L_mid_hand03 Rope1_Seg09
null_rope02_connect R_mid_tent01
Rope2_Seg01 null_rope02_connect
Rope2_Seg02 Rope2_Seg01
Rope2_Seg03 Rope2_Seg02
Rope2_Seg04 Rope2_Seg03
Rope2_Seg05 Rope2_Seg04
Rope2_Seg06 Rope2_Seg05
Rope2_Seg07 Rope2_Seg06
Rope2_Seg09 Rope2_Seg07
R_mid_hand01 Rope2_Seg09
R_mid_hand02 Rope2_Seg09
R_mid_hand03 Rope2_Seg09
spine02 spine01
spine03 spine02
pelvis spine03
null_rope03_connect pelvis
null_rope04_connect pelvis
Rope3_Seg01 null_rope03_connect
Rope3_Seg02 Rope3_Seg01
Rope3_Seg03 Rope3_Seg02
Rope3_Seg04 Rope3_Seg03
Rope3_Seg05 Rope3_Seg04
Rope3_Seg06 Rope3_Seg05
Rope3_Seg07 Rope3_Seg06
Rope3_Seg08 Rope3_Seg07
Rope3_Seg09 Rope3_Seg08
R_rear_hand01 Rope3_Seg09
R_rear_hand02 Rope3_Seg09
R_rear_hand03 Rope3_Seg09
Rope4_Seg01 null_rope04_connect
Rope4_Seg02 Rope4_Seg01
Rope4_Seg03 Rope4_Seg02
Rope4_Seg04 Rope4_Seg03
Rope4_Seg05 Rope4_Seg04
Rope4_Seg06 Rope4_Seg05
Rope4_Seg07 Rope4_Seg06
Rope4_Seg08 Rope4_Seg07
Rope4_Seg09 Rope4_Seg08
L_rear_hand01 Rope4_Seg09
L_rear_hand02 Rope4_Seg09
L_rear_hand03 Rope4_Seg09
[BasePosition]
#SegmentName Tx, Ty, Tz, Rx, Ry, Rz, BoneLength
MASTER 0.000000 0.000000 0.000000 -90.000000 0.000000 0.000000 10.000000 
root 0.000000 0.000000 0.000000 0.000000 0.000000 0.000000 10.000000 
chest 0.000000 0.000000 0.000000 0.000000 0.000000 0.000000 10.000000 
L_mid_tent01 0.000000 0.000000 0.000000 0.000000 0.000000 0.000000 10.000000 
R_mid_tent01 0.000000 0.000000 0.000000 0.000000 0.000000 0.000000 10.000000 
spine01 0.000000 0.000000 0.000000 0.000000 0.000000 0.000000 10.000000 
Bip01_Neck 0.000000 0.000000 0.000000 0.000000 0.000000 0.000000 10.000000 
L_humerus 0.000000 0.000000 0.000000 0.000000 0.000000 0.000000 10.000000 
R_humerus 0.000000 0.000000 0.000000 0.000000 0.000000 0.000000 10.000000 
weapon_bone 0.000000 0.000000 0.000000 0.000000 0.000000 0.000000 10.000000 
Bip01_Head 0.000000 0.000000 0.000000 0.000000 0.000000 0.000000 10.000000 
eye_left_bone 0.000000 0.000000 0.000000 0.000000 0.000000 0.000000 10.000000 
eye_right_bone 0.000000 0.000000 0.000000 0.000000 0.000000 0.000000 10.000000 
L_forearm 0.000000 0.000000 0.000000 0.000000 0.000000 0.000000 10.000000 
L_front_hand 0.000000 0.000000 0.000000 0.000000 0.000000 0.000000 10.000000 
L_weapon_bone 0.000000 0.000000 0.000000 0.000000 0.000000 0.000000 10.000000 
L_front_hand01_01 0.000000 0.000000 0.000000 0.000000 0.000000 0.000000 10.000000 
L_front_hand02_01 0.000000 0.000000 0.000000 0.000000 0.000000 0.000000 10.000000 
L_front_hand03_01 0.000000 0.000000 0.000000 0.000000 0.000000 0.000000 10.000000 
L_front_hand01_02 0.000000 0.000000 0.000000 0.000000 0.000000 0.000000 10.000000 
L_front_hand02_02 0.000000 0.000000 0.000000 0.000000 0.000000 0.000000 10.000000 
L_front_hand03_02 0.000000 0.000000 0.000000 0.000000 0.000000 0.000000 10.000000 
R_forearm 0.000000 0.000000 0.000000 0.000000 0.000000 0.000000 10.000000 
R_front_hand 0.000000 0.000000 0.000000 0.000000 0.000000 0.000000 10.000000 
R_weapon_bone 0.000000 0.000000 0.000000 0.000000 0.000000 0.000000 10.000000 
R_front_hand01_01 0.000000 0.000000 0.000000 0.000000 0.000000 0.000000 10.000000 
R_front_hand02_01 0.000000 0.000000 0.000000 0.000000 0.000000 0.000000 10.000000 
R_front_hand03_01 0.000000 0.000000 0.000000 0.000000 0.000000 0.000000 10.000000 
R_front_hand01_02 0.000000 0.000000 0.000000 0.000000 0.000000 0.000000 10.000000 
R_front_hand02_02 0.000000 0.000000 0.000000 0.000000 0.000000 0.000000 10.000000 
R_front_hand03_02 0.000000 0.000000 0.000000 0.000000 0.000000 0.000000 10.000000 
null_rope01_connect 0.000000 0.000000 0.000000 0.000000 0.000000 0.000000 10.000000 
Rope1_Seg01 0.000000 0.000000 0.000000 0.000000 0.000000 0.000000 10.000000 
Rope1_Seg02 0.000000 0.000000 0.000000 0.000000 0.000000 0.000000 10.000000 
Rope1_Seg03 0.000000 0.000000 0.000000 0.000000 0.000000 0.000000 10.000000 
Rope1_Seg04 0.000000 0.000000 0.000000 0.000000 0.000000 0.000000 10.000000 
Rope1_Seg05 0.000000 0.000000 0.000000 0.000000 0.000000 0.000000 10.000000 
Rope1_Seg06 0.000000 0.000000 0.000000 0.000000 0.000000 0.000000 10.000000 
Rope1_Seg07 0.000000 0.000000 0.000000 0.000000 0.000000 0.000000 10.000000 
Rope1_Seg09 0.000000 0.000000 0.000000 0.000000 0.000000 0.000000 10.000000 
L_mid_hand01 0.000000 0.000000 0.000000 0.000000 0.000000 0.000000 10.000000 
L_mid_hand02 0.000000 0.000000 0.000000 0.000000 0.000000 0.000000 10.000000 
L_mid_hand03 0.000000 0.000000 0.000000 0.000000 0.000000 0.000000 10.000000 
null_rope02_connect 0.000000 0.000000 0.000000 0.000000 0.000000 0.000000 10.000000 
Rope2_Seg01 0.000000 0.000000 0.000000 0.000000 0.000000 0.000000 10.000000 
Rope2_Seg02 0.000000 0.000000 0.000000 0.000000 0.000000 0.000000 10.000000 
Rope2_Seg03 0.000000 0.000000 0.000000 0.000000 0.000000 0.000000 10.000000 
Rope2_Seg04 0.000000 0.000000 0.000000 0.000000 0.000000 0.000000 10.000000 
Rope2_Seg05 0.000000 0.000000 0.000000 0.000000 0.000000 0.000000 10.000000 
Rope2_Seg06 0.000000 0.000000 0.000000 0.000000 0.000000 0.000000 10.000000 
Rope2_Seg07 0.000000 0.000000 0.000000 0.000000 0.000000 0.000000 10.000000 
Rope2_Seg09 0.000000 0.000000 0.000000 0.000000 0.000000 0.000000 10.000000 
R_mid_hand01 0.000000 0.000000 0.000000 0.000000 0.000000 0.000000 10.000000 
R_mid_hand02 0.000000 0.000000 0.000000 0.000000 0.000000 0.000000 10.000000 
R_mid_hand03 0.000000 0.000000 0.000000 0.000000 0.000000 0.000000 10.000000 
spine02 0.000000 0.000000 0.000000 0.000000 0.000000 0.000000 10.000000 
spine03 0.000000 0.000000 0.000000 0.000000 0.000000 0.000000 10.000000 
pelvis 0.000000 0.000000 0.000000 0.000000 0.000000 0.000000 10.000000 
null_rope03_connect 0.000000 0.000000 0.000000 0.000000 0.000000 0.000000 10.000000 
null_rope04_connect 0.000000 0.000000 0.000000 0.000000 0.000000 0.000000 10.000000 
Rope3_Seg01 0.000000 0.000000 0.000000 0.000000 0.000000 0.000000 10.000000 
Rope3_Seg02 0.000000 0.000000 0.000000 0.000000 0.000000 0.000000 10.000000 
Rope3_Seg03 0.000000 0.000000 0.000000 0.000000 0.000000 0.000000 10.000000 
Rope3_Seg04 0.000000 0.000000 0.000000 0.000000 0.000000 0.000000 10.000000 
Rope3_Seg05 0.000000 0.000000 0.000000 0.000000 0.000000 0.000000 10.000000 
Rope3_Seg06 0.000000 0.000000 0.000000 0.000000 0.000000 0.000000 10.000000 
Rope3_Seg07 0.000000 0.000000 0.000000 0.000000 0.000000 0.000000 10.000000 
Rope3_Seg08 0.000000 0.000000 0.000000 0.000000 0.000000 0.000000 10.000000 
Rope3_Seg09 0.000000 0.000000 0.000000 0.000000 0.000000 0.000000 10.000000 
R_rear_hand01 0.000000 0.000000 0.000000 0.000000 0.000000 0.000000 10.000000 
R_rear_hand02 0.000000 0.000000 0.000000 0.000000 0.000000 0.000000 10.000000 
R_rear_hand03 0.000000 0.000000 0.000000 0.000000 0.000000 0.000000 10.000000 
Rope4_Seg01 0.000000 0.000000 0.000000 0.000000 0.000000 0.000000 10.000000 
Rope4_Seg02 0.000000 0.000000 0.000000 0.000000 0.000000 0.000000 10.000000 
Rope4_Seg03 0.000000 0.000000 0.000000 0.000000 0.000000 0.000000 10.000000 
Rope4_Seg04 0.000000 0.000000 0.000000 0.000000 0.000000 0.000000 10.000000 
Rope4_Seg05 0.000000 0.000000 0.000000 0.000000 0.000000 0.000000 10.000000 
Rope4_Seg06 0.000000 0.000000 0.000000 0.000000 0.000000 0.000000 10.000000 
Rope4_Seg07 0.000000 0.000000 0.000000 0.000000 0.000000 0.000000 10.000000 
Rope4_Seg08 0.000000 0.000000 0.000000 0.000000 0.000000 0.000000 10.000000 
Rope4_Seg09 0.000000 0.000000 0.000000 0.000000 0.000000 0.000000 10.000000 
L_rear_hand01 0.000000 0.000000 0.000000 0.000000 0.000000 0.000000 10.000000 
L_rear_hand02 0.000000 0.000000 0.000000 0.000000 0.000000 0.000000 10.000000 
L_rear_hand03 0.000000 0.000000 0.000000 0.000000 0.000000 0.000000 10.000000 
#Beginning of Data. Separated by tabs
#Fr	Tx	Ty	Tz	Rx	Ry	Rz	SF
[MASTER]
6 866.887817 -825.203369 0.000000 0.000043 -0.002347 -92.079514 1196.852173
7 955.225830 -1020.764221 0.000000 0.000060 -0.002346 -92.921638 1398.004272
[root]
6 -62.822155 62.914646 1117.727783 -77.784523 -7.968858 -179.761154 1121.258301
7 -62.822098 49.337387 1096.564697 -76.383286 -8.540112 -179.795975 1099.470215
[chest]
6 -84.512650 -34.090519 0.000000 -5.620947 2.617268 155.936966 91.129311
7 -84.512650 -34.090519 0.000000 -6.685453 3.281935 155.807327 91.129311
[L_mid_tent01]
6 23.228750 24.509907 -223.761200 -11.368604 17.983805 -11.308082 226.294907
7 23.228750 24.509907 -223.761200 -13.019650 21.055021 -15.352934 226.294907
[R_mid_tent01]
6 23.228794 24.509907 226.238495 -158.336624 -21.850428 -28.223747 228.744751
7 23.228794 24.509907 226.238495 -158.833786 -18.075159 -26.733372 228.744751
[spine01]
6 -0.361383 -0.195265 0.000000 0.001815 0.001488 11.320962 0.410763
7 -0.361383 -0.195265 0.000000 0.001815 0.001488 11.320960 0.410763
[Bip01_Neck]
6 165.484543 71.581718 0.000119 175.896118 1.177290 24.871183 180.302734
7 165.484543 71.581718 0.000119 175.896118 1.177290 24.871183 180.302734
[L_humerus]
6 -13.983130 -135.272980 -120.471481 161.052933 33.449436 -108.544250 181.680161
7 -13.983130 -135.272980 -120.471481 164.043594 22.732168 -108.023979 181.680161
[R_humerus]
6 -13.983309 -135.273102 125.287651 -165.004272 -24.587234 -102.716400 184.909012
7 -13.983309 -135.273102 125.287651 -166.100861 -13.299152 -103.173454 184.909012
[weapon_bone]
6 235.964890 -300.705902 0.000000 0.000000 -89.951546 -128.212341 382.234833
7 235.964890 -300.705902 0.000000 0.000000 -89.951546 -128.212341 382.234833
[Bip01_Head]
6 201.313797 211.516800 15.929725 -13.321426 8.802707 -71.848877 292.438629
7 201.313797 211.516800 15.929725 -15.833772 8.137866 -72.916054 292.438629
[eye_left_bone]
6 -24.626970 125.451866 -64.772606 0.000000 -90.000000 -99.840431 143.318359
7 -24.626970 125.451866 -64.772606 0.000000 -90.000000 -99.840431 143.318359
[eye_right_bone]
6 -24.626970 125.451866 64.327362 0.000000 -89.965736 80.156380 143.117676
7 -24.626970 125.451866 64.327362 0.000000 -89.965736 80.156380 143.117676
[L_forearm]
6 322.776093 0.000000 -0.000119 0.000357 -0.002320 -107.506004 322.776093
7 322.776093 0.000000 -0.000119 0.000357 -0.002320 -107.506004 322.776093
[L_front_hand]
6 241.149185 -0.042021 -3.300071 -179.431961 -2.195943 -5.942918 241.171753
7 241.149185 -0.042021 -3.300071 -179.431961 -2.195943 -5.942918 241.171753
[L_weapon_bone]
6 156.183838 0.000000 0.000000 0.000014 0.000007 0.000001 156.183838
7 156.183838 0.000000 0.000000 0.000014 0.000007 0.000001 156.183838
[L_front_hand01_01]
6 86.095154 20.947098 -0.655860 0.139491 -0.584553 24.181786 88.609184
7 86.095154 20.947098 -0.655860 0.139491 -0.584553 24.181787 88.609184
[L_front_hand02_01]
6 86.935165 -11.437475 24.513514 119.190460 -21.905661 -12.119134 91.046425
7 86.935165 -11.437475 24.513514 119.190460 -21.905655 -12.119137 91.046425
[L_front_hand03_01]
6 86.637497 -14.123976 -20.424902 -120.437630 20.554031 -14.327168 90.126129
7 86.637497 -14.123976 -20.424902 -120.437630 20.554033 -14.327170 90.126129
[L_front_hand01_02]
6 71.020905 -0.000179 0.000030 0.000334 -0.002323 -106.379684 71.020905
7 71.020905 -0.000179 0.000030 0.000334 -0.002323 -106.379684 71.020905
[L_front_hand02_02]
6 71.020927 -0.000119 0.000060 0.000334 -0.002323 -106.379684 71.020927
7 71.020927 -0.000119 0.000060 0.000334 -0.002323 -106.379684 71.020927
[L_front_hand03_02]
6 71.020905 -0.000060 0.000060 0.000334 -0.002323 -106.379684 71.020905
7 71.020905 -0.000060 0.000060 0.000334 -0.002323 -106.379684 71.020905
[R_forearm]
6 322.776428 -0.000060 0.000030 0.196737 0.083011 -114.368637 322.776428
7 322.776428 -0.000060 0.000030 0.196737 0.083011 -114.368637 322.776428
[R_front_hand]
6 238.847015 -0.006795 2.210259 -0.341870 1.692706 -0.151780 238.857239
7 238.847015 -0.006795 2.210259 -0.341870 1.692705 -0.151779 238.857239
[R_weapon_bone]
6 155.664093 0.002503 -0.000030 0.003487 0.001180 -90.988930 155.664078
7 155.664093 0.002503 -0.000030 0.003487 0.001180 -90.988930 155.664078
[R_front_hand01_01]
6 87.624611 14.231146 22.918642 -119.218056 -22.033409 12.303375 91.683487
7 87.624611 14.231146 22.918642 -119.218056 -22.033409 12.303375 91.683487
[R_front_hand02_01]
6 89.356956 14.367283 -19.491137 120.545532 20.947184 14.823009 92.579636
7 89.356956 14.367283 -19.491137 120.545532 20.947184 14.823009 92.579636
[R_front_hand03_01]
6 87.286232 -22.307278 -0.143439 -0.231628 -0.392922 -24.567768 90.091743
7 87.286232 -22.307278 -0.143439 -0.231628 -0.392922 -24.567768 90.091743
[R_front_hand01_02]
6 71.020905 0.000060 0.000119 0.002323 -0.000334 106.381714 71.020905
7 71.020905 0.000060 0.000119 0.002323 -0.000334 106.381714 71.020905
[R_front_hand02_02]
6 71.020844 -0.000030 -0.000119 0.002323 -0.000334 106.381714 71.020836
7 71.020844 -0.000030 -0.000119 0.002323 -0.000334 106.381714 71.020836
[R_front_hand03_02]
6 71.020905 0.000000 0.000030 0.002323 -0.000334 106.381714 71.020905
7 71.020905 0.000000 0.000030 0.002323 -0.000334 106.381714 71.020905
[null_rope01_connect]
6 328.732483 0.000000 -0.000238 72.348022 68.259369 -2.183360 328.732483
7 328.732483 0.000000 -0.000238 70.310204 63.378830 -0.835860 328.732483
[Rope1_Seg01]
6 0.000041 0.000000 -0.000064 1.101804 -13.166517 101.373604 0.000076
7 0.000046 0.000000 -0.000061 13.371873 -17.342039 88.912643 0.000076
[Rope1_Seg02]
6 139.999863 -0.000179 0.000000 1.057859 3.366352 -6.036375 139.999863
7 139.999863 -0.000179 0.000000 -1.829979 4.236948 -1.877705 139.999863
[Rope1_Seg03]
6 139.999924 0.000060 -0.000060 2.720709 4.716958 -9.334083 139.999924
7 139.999924 0.000060 -0.000060 -3.429928 6.222234 -2.603135 139.999924
[Rope1_Seg04]
6 139.999924 -0.000060 -0.000119 28.387581 8.214132 -24.275112 139.999924
7 139.999924 -0.000060 -0.000119 -12.188896 14.353518 -7.632033 139.999924
[Rope1_Seg05]
6 139.999832 0.000119 -0.000060 -28.840385 6.689006 11.541253 139.999832
7 139.999832 0.000119 -0.000060 -9.849069 2.386772 5.299412 139.999832
[Rope1_Seg06]
6 139.999954 0.000119 -0.000060 -13.729464 -2.771657 19.130125 139.999954
7 139.999954 0.000119 -0.000060 1.481273 -5.341773 4.285954 139.999954
[Rope1_Seg07]
6 139.999985 0.000060 0.000000 -2.247784 -1.731038 5.326064 139.999985
7 139.999985 0.000060 0.000000 -0.673155 -0.824473 1.668384 139.999985
[Rope1_Seg09]
6 121.602913 0.000119 -0.000089 -89.793175 -1.359789 0.847147 121.602913
7 121.602913 0.000119 -0.000089 -89.793175 -1.359789 0.847147 121.602913
[L_mid_hand01]
6 103.859421 1.038730 8.195221 106.855484 -31.239275 -9.461397 104.187431
7 103.859421 1.038730 8.195221 106.855484 -31.239275 -9.461397 104.187431
[L_mid_hand02]
6 105.572853 -4.139662 -10.864139 -142.331345 25.752670 -28.774628 106.211075
7 105.572853 -4.139662 -10.864139 -142.331345 25.752670 -28.774628 106.211075
[L_mid_hand03]
6 104.641464 17.579376 -3.913581 -16.122810 9.734291 34.223598 106.179977
7 104.641464 17.579376 -3.913581 -16.122810 9.734291 34.223598 106.179977
[null_rope02_connect]
6 328.732849 0.000179 -0.000119 118.649635 -55.607903 115.930069 328.732849
7 328.732849 0.000179 -0.000119 127.039673 -56.918377 107.511887 328.732849
[Rope2_Seg01]
6 -0.000113 -0.000127 -0.000127 28.713427 -15.547596 134.750534 0.000212
7 -0.000114 -0.000122 -0.000122 29.089653 -15.480556 134.526718 0.000207
[Rope2_Seg02]
6 139.999741 -0.000060 -0.000119 5.672997 -2.795213 -3.143810 139.999756
7 139.999741 -0.000060 -0.000119 4.567720 -2.842624 -2.300269 139.999756
[Rope2_Seg03]
6 140.000107 0.000030 0.000000 6.658422 -4.044202 -3.743880 140.000107
7 140.000107 0.000030 0.000000 4.760129 -3.541770 -2.433719 140.000107
[Rope2_Seg04]
6 139.999802 0.000000 -0.000060 10.369612 -9.318472 -6.093967 139.999802
7 139.999802 0.000000 -0.000060 7.560627 -7.877297 -3.953151 139.999802
[Rope2_Seg05]
6 139.999985 -0.000060 0.000119 9.896174 -15.532943 -6.563312 139.999985
7 139.999985 -0.000060 0.000119 4.810503 -7.010900 -2.668869 139.999985
[Rope2_Seg06]
6 139.999893 -0.000030 -0.000119 -5.235975 14.615801 -0.236018 139.999893
7 139.999893 -0.000030 -0.000119 -5.639144 10.762647 1.001938 139.999893
[Rope2_Seg07]
6 139.999893 0.000060 -0.000060 -25.910063 25.449381 4.032314 139.999893
7 139.999893 0.000060 -0.000060 -16.273529 16.056684 3.651278 139.999893
[Rope2_Seg09]
6 121.338966 0.000089 -0.000060 33.793236 -1.359788 -0.847141 121.338966
7 121.338966 0.000089 -0.000060 33.793236 -1.359788 -0.847141 121.338966
[R_mid_hand01]
6 104.680779 11.144459 -10.335981 -41.523792 25.424656 28.595957 105.778534
7 104.680779 11.144459 -10.335981 -41.523792 25.424656 28.595957 105.778534
[R_mid_hand02]
6 104.070427 2.443552 8.231699 72.847389 -32.746803 10.013901 104.424065
7 104.070427 2.443552 8.231699 72.847389 -32.746803 10.013901 104.424065
[R_mid_hand03]
6 106.028137 -11.221827 -5.996406 -167.901306 10.259192 -37.009720 106.788818
7 106.028137 -11.221827 -5.996406 -167.901306 10.259192 -37.009720 106.788818
[spine02]
6 129.756927 0.001550 0.000119 0.001147 -1.797837 -7.854275 129.756927
7 129.756927 0.001550 0.000119 0.001147 -1.797837 -7.854274 129.756927
[spine03]
6 79.115631 0.000000 -0.000119 1.459971 -2.848092 23.765963 79.115631
7 79.115631 0.000000 -0.000119 1.459971 -2.848092 23.765961 79.115631
[pelvis]
6 169.435242 0.051022 0.000000 -0.000005 0.000003 -4.322055 169.435257
7 169.435242 0.051022 0.000000 -0.000005 0.000003 -4.322055 169.435257
[null_rope03_connect]
6 -1.257226 -2.466202 137.391083 -15.782660 75.169243 -120.164909 137.418976
7 -1.257226 -2.466202 137.391083 -12.788801 74.016502 -116.413353 137.418976
[null_rope04_connect]
6 -1.259640 -2.480268 -137.844437 -15.782660 75.169243 -120.164909 137.872513
7 -1.259640 -2.480268 -137.844437 -12.788801 74.016502 -116.413353 137.872513
[Rope3_Seg01]
6 0.000041 0.000000 -0.000064 -131.016113 10.937295 101.671837 0.000076
7 0.000046 0.000000 -0.000061 -129.028839 10.247291 112.142105 0.000076
[Rope3_Seg02]
6 139.999924 -0.000119 0.000060 0.575956 6.017615 1.220574 139.999924
7 139.999924 -0.000119 0.000060 -0.026107 6.803532 2.700516 139.999924
[Rope3_Seg03]
6 139.999924 -0.000119 0.000119 1.142203 7.278414 1.412442 139.999924
7 139.999924 -0.000119 0.000119 0.669616 8.856822 3.561200 139.999924
[Rope3_Seg04]
6 139.999924 0.000119 0.000000 2.522819 10.486633 1.976936 139.999924
7 139.999924 0.000119 0.000000 2.314345 12.382003 5.065672 139.999924
[Rope3_Seg05]
6 139.999924 -0.000238 0.000060 5.799309 14.624714 2.334153 139.999924
7 139.999924 -0.000238 0.000060 7.082586 17.850306 7.182102 139.999924
[Rope3_Seg06]
6 139.999893 -0.000119 -0.000060 1.512830 1.995752 -0.427098 139.999893
7 139.999893 -0.000119 -0.000060 4.028729 6.486777 1.028091 139.999893
[Rope3_Seg07]
6 139.999771 0.000060 -0.000119 -3.493742 -11.412224 -1.588533 139.999771
7 139.999771 0.000060 -0.000119 -1.654244 -6.073922 -2.872882 139.999771
[Rope3_Seg08]
6 139.999985 -0.000060 0.000000 -1.062647 -6.853026 -1.589656 139.999985
7 139.999985 -0.000060 0.000000 -0.601291 -4.305772 -2.396096 139.999985
[Rope3_Seg09]
6 90.185997 -0.000179 -0.000060 89.793228 -1.359877 -0.847183 90.185997
7 90.185997 -0.000179 -0.000060 89.793228 -1.359877 -0.847183 90.185997
[R_rear_hand01]
6 103.366196 -6.073594 -10.757982 -161.551193 16.666374 -30.088671 104.101845
7 103.366196 -6.073594 -10.757982 -161.551193 16.666374 -30.088671 104.101845
[R_rear_hand02]
6 100.509819 12.039542 -7.992327 -34.280552 19.289745 28.875523 101.543350
7 100.509819 12.039542 -7.992327 -34.280552 19.289745 28.875523 101.543350
[R_rear_hand03]
6 101.539970 5.215704 5.435467 83.366440 -30.933914 7.284830 101.819031
7 101.539970 5.215704 5.435467 83.366440 -30.933914 7.284830 101.819031
[Rope4_Seg01]
6 0.000017 -0.000038 -0.000153 44.905582 0.921118 106.837868 0.000158
7 0.000017 -0.000061 -0.000153 36.328568 -2.802825 126.732346 0.000165
[Rope4_Seg02]
6 139.999985 0.000060 0.000119 2.531499 -23.474117 -12.398693 139.999985
7 139.999985 0.000060 0.000119 10.760110 -24.103197 -26.206806 139.999985
[Rope4_Seg03]
6 139.999924 0.000000 -0.000238 0.654907 -11.563259 -5.415438 139.999924
7 139.999924 0.000000 -0.000238 1.995129 -15.511884 -13.322639 139.999924
[Rope4_Seg04]
6 139.999985 0.000000 0.000119 0.276375 -5.678548 -2.542609 139.999985
7 139.999985 0.000000 0.000119 -0.032865 -8.017780 -6.727657 139.999985
[Rope4_Seg05]
6 139.999802 -0.000060 -0.000119 -0.015748 -0.463325 -0.586821 139.999802
7 139.999802 -0.000060 -0.000119 -0.087599 -2.047435 -1.648957 139.999802
[Rope4_Seg06]
6 139.999924 0.000000 0.000060 -0.141879 2.786876 0.403879 139.999924
7 139.999924 0.000000 0.000060 0.215813 0.356857 0.477123 139.999924
[Rope4_Seg07]
6 139.999802 0.000000 0.000000 -0.147299 7.095929 1.513816 139.999802
7 139.999802 0.000000 0.000000 0.611934 2.900948 2.797836 139.999802
[Rope4_Seg08]
6 139.999924 0.000000 0.000119 -1.567459 4.593242 0.740721 139.999924
7 139.999924 0.000000 0.000119 -1.222522 1.591881 1.612108 139.999924
[Rope4_Seg09]
6 90.185791 0.000060 0.000060 -135.617828 2.228885 0.850567 90.185791
7 90.185791 0.000060 0.000060 -135.617828 2.228885 0.850567 90.185791
[L_rear_hand01]
6 101.696655 -8.392275 -7.654577 -34.454281 -18.946800 151.655121 102.329041
7 101.696655 -8.392275 -7.654577 -34.454281 -18.946800 151.655121 102.329041
[L_rear_hand02]
6 102.726799 -1.568258 5.773216 83.407906 30.330435 172.796509 102.900848
7 102.726799 -1.568258 5.773216 83.407906 30.330435 172.796509 102.900848
[L_rear_hand03]
6 104.552910 9.721220 -10.420293 -161.379868 -16.473232 -150.512238 105.519653
7 104.552910 9.721220 -10.420293 -161.379868 -16.473232 -150.512238 105.519653
